<?xml version="1.0" encoding="UTF-8" standalone="no"?><!DOCTYPE svg PUBLIC "-//W3C//DTD SVG 1.1//EN" "http://www.w3.org/Graphics/SVG/1.1/DTD/svg11.dtd"><svg width="100%" height="100%" viewBox="0 0 819 358" version="1.1" xmlns="http://www.w3.org/2000/svg" xmlns:xlink="http://www.w3.org/1999/xlink" xml:space="preserve" xmlns:serif="http://www.serif.com/" style="fill-rule:evenodd;clip-rule:evenodd;stroke-linejoin:round;stroke-miterlimit:1.41421;"><g><g><g><g><circle cx="170.675" cy="104.28" r="14.964" style="fill:#422c83;"/><path d="M212.805,114.91c0.937,-3.6 1.466,-7.299 1.58,-11.021c-0.138,-3.853 -0.668,-7.673 -1.58,-11.421l0,-39.376l-4.724,0.79c-14.964,1.572 -30.319,2.753 -45.283,3.543c-20.372,-8.658 -43.408,-8.658 -63.781,0c-15.363,-0.79 -30.318,-1.971 -45.282,-3.543l-4.725,-0.391l0,39.368c-1.132,3.707 -1.661,7.56 -1.58,11.421c-0.057,3.739 0.473,7.461 1.58,11.029c-7.086,3.935 -12.601,12.602 -12.601,24.804c-0.79,27.565 18.108,54.34 18.108,54.34c1.955,-5.881 4.741,-11.445 8.268,-16.536c6.916,10.655 16.218,19.558 27.174,25.985c-1.442,-0.008 -2.786,0.742 -3.543,1.972c-0.758,-1.23 -2.102,-1.98 -3.544,-1.972l-1.181,0c-2.37,0.025 -4.309,1.963 -4.333,4.334l0,14.173c-0.009,0.09 -0.009,0.18 -0.009,0.277c0,2.395 1.939,4.391 4.342,4.448l1.572,0c1.442,0.008 2.786,-0.741 3.544,-1.971c0.757,1.23 2.101,1.979 3.543,1.971l1.181,0c1.442,0.008 2.786,-0.741 3.544,-1.971c0.757,1.23 2.101,1.979 3.543,1.971l0.399,0c2.362,-0.024 4.309,-1.963 4.326,-4.334l0,-12.601c17.7,6.297 37.038,6.297 54.731,0l0,12.21c-0.008,2.452 1.89,4.521 4.333,4.725l1.182,0c1.441,0.008 2.785,-0.741 3.543,-1.971c0.757,1.23 2.102,1.979 3.543,1.971l1.181,0c1.442,0.008 2.786,-0.741 3.544,-1.971c0.757,1.23 2.101,1.979 3.543,1.971l1.181,0c2.403,-0.057 4.342,-2.053 4.342,-4.448c0,-0.097 0,-0.187 -0.008,-0.277l0,-14.572c0.008,-2.444 -1.89,-4.521 -4.334,-4.725l-1.181,0c-1.442,-0.008 -2.786,0.741 -3.543,1.971c-0.758,-1.23 -2.102,-1.979 -3.544,-1.971c10.957,-6.427 20.259,-15.33 27.175,-25.985c3.527,5.091 6.313,10.655 8.268,16.536c1.955,5.881 18.898,-26.775 18.108,-54.34c0.562,-9.808 -4.277,-19.183 -12.602,-24.413Zm-121.665,24.812c-19.444,0 -35.442,-15.998 -35.442,-35.442c0,-19.436 15.998,-35.434 35.442,-35.434c19.436,0 35.434,15.998 35.434,35.434c0,19.444 -15.998,35.442 -35.434,35.442Zm39.768,17.326l-16.145,-16.145c6.973,-4.578 12.552,-10.98 16.145,-18.507c3.486,7.592 9.09,14.027 16.145,18.507l-16.145,16.145Zm39.767,-17.326c-19.435,0 -35.434,-15.998 -35.434,-35.442c0,-19.436 15.999,-35.434 35.434,-35.434c19.444,0 35.443,15.998 35.443,35.434c0,19.444 -15.999,35.442 -35.443,35.442Z" style="fill:#422c83;fill-rule:nonzero;"/><circle cx="91.14" cy="104.28" r="14.964" style="fill:#422c83;"/><path d="M130.908,2.694c-71.495,0 -130.332,58.837 -130.332,130.332c0,71.495 58.837,130.332 130.332,130.332c71.495,0 130.332,-58.837 130.332,-130.332c0,-0.024 0,-0.049 0,-0.081c0,-71.455 -58.796,-130.251 -130.251,-130.251c-0.032,0 -0.057,0 -0.081,0Zm0,250.824c-66.136,-0.114 -120.492,-54.56 -120.492,-120.687c0,-66.209 54.487,-120.688 120.687,-120.688c66.209,0 120.688,54.479 120.688,120.688c0,0.065 0,0.13 0,0.195c-0.041,66.111 -54.455,120.492 -120.566,120.492c-0.105,0 -0.211,0 -0.317,0Z" style="fill:#422c83;fill-rule:nonzero;"/></g><g><g><path d="M96.522,319.111l0,19.51c0,7.334 -4.558,12.746 -12.888,12.746c-8.259,0 -12.959,-5.412 -12.959,-12.746l0,-19.51l-5.981,0l0,19.51c0,10.966 7.619,18.584 18.94,18.584c11.249,0 18.939,-7.618 18.939,-18.584l0,-19.51l-6.051,0Z" style="fill:#422c83;fill-rule:nonzero;"/><path d="M28.102,343.434l0,-10.081l23.781,0l0,10.081l5.981,0l0,-36.497l-5.981,0l0,20.578l-23.781,0l0,-20.578l-6.051,0l0,36.497l6.051,0Z" style="fill:#422c83;fill-rule:nonzero;"/><path d="M114.887,343.434l0,-21.117c0,-5.839 4.557,-10.822 10.609,-10.822c6.123,0 10.608,4.983 10.608,10.822l0,21.117l6.052,0l0,-21.117c0,-5.839 4.487,-10.822 10.609,-10.822c6.053,0 10.609,4.983 10.609,10.822l0,21.117l5.981,0l0,-21.117c0,-9.185 -7.191,-16.59 -16.59,-16.59c-5.98,0 -10.893,2.991 -13.67,7.476c-2.705,-4.485 -7.619,-7.476 -13.599,-7.476c-9.399,0 -16.661,7.405 -16.661,16.59l0,21.117l6.052,0Z" style="fill:#422c83;fill-rule:nonzero;"/><path d="M214.425,305.671c-13.995,0 -25.341,11.344 -25.341,25.339c0,13.996 11.346,25.34 25.341,25.34c13.994,0 25.34,-11.344 25.34,-25.34c0,-13.995 -11.346,-25.339 -25.34,-25.339m0,5.537c10.919,0 19.802,8.883 19.802,19.802c0,10.919 -8.883,19.803 -19.802,19.803c-10.919,0 -19.803,-8.884 -19.803,-19.803c0,-10.919 8.884,-19.802 19.803,-19.802" style="fill:#422c83;fill-rule:nonzero;"/><rect x="176.752" y="319.111" width="6.052" height="24.323" style="fill:#422c83;fill-rule:nonzero;"/></g></g></g><text x="336.706px" y="223.404px" style="font-family:'MaterialIcons-Regular', 'Material Icons';font-size:168.467px;fill:#422c83;"></text></g><g><path d="M693.923,0.931l-113.068,65.33l76.277,44.828l15.463,-9.426l37.487,20.937l0,-43.438l35.923,-21.588l0,43.524l62.898,-34.837l0,-0.174" style="fill:#25ba81;fill-rule:nonzero;"/><path d="M679.676,140.018l0,43.395l-34.229,21.719l0,-86.876l12.988,-7.949l-76.929,-44.046l-0.651,0l0,130.14l114.024,65.156l0,-112.851" style="fill:#25ba81;fill-rule:nonzero;"/><path d="M746.005,101.098l0,43.221l-30.102,17.418l-21.024,-13.031l0,112.851l0.608,0l113.416,-65.156l0,-130.14l-2.129,-0.043" style="fill:#1f9967;fill-rule:nonzero;"/></g><path d="M581.172,302.237l0,44.92l-10.933,0l0,-59.301l14.936,0l22.497,45.069l0,-45.013l10.934,0l0,59.3l-14.936,0m41.621,0.834c-14.825,0 -18.865,-8.191 -18.865,-17.086l0,-10.933c0,-8.895 4.003,-17.086 18.865,-17.086c14.862,0 18.865,8.191 18.865,17.086l0,10.952c0,8.876 -4.003,17.067 -18.865,17.067Zm0,-35.858c-5.782,0 -8.005,2.576 -8.005,7.413l0,11.656c0,4.892 2.223,7.412 8.005,7.412c5.782,0 8.006,-2.575 8.006,-7.412l0,-11.582c0,-4.893 -2.224,-7.487 -8.006,-7.487Zm51.87,34.969l0,-30.244c0,-2.316 -0.982,-3.465 -3.466,-3.465c-3.978,0.467 -7.82,1.727 -11.304,3.706l0,30.003l-10.859,0l0,-43.327l8.265,0l1.075,3.707c5.403,-2.706 11.311,-4.25 17.345,-4.541c3.432,-0.324 6.701,1.525 8.191,4.633c5.415,-2.77 11.36,-4.351 17.438,-4.633c7.209,0 9.785,5.078 9.785,12.806l0,31.355l-10.86,0l0,-30.244c0,-2.316 -0.982,-3.465 -3.465,-3.465c-3.984,0.434 -7.839,1.696 -11.304,3.706l0,30.003l-10.841,0Zm77.48,0l-8.895,0l-0.797,-2.928c-3.862,2.505 -8.369,3.832 -12.972,3.817c-7.913,0 -11.304,-5.429 -11.304,-12.972c0,-8.802 3.817,-12.193 12.638,-12.193l10.415,0l0,-4.466c0,-4.8 -1.335,-6.487 -8.265,-6.487c-4.04,0.045 -8.061,0.492 -12.009,1.335l-1.334,-8.265c4.829,-1.335 9.814,-2.02 14.825,-2.039c13.602,0 17.605,4.8 17.605,15.659l0.093,28.539Zm-10.915,-16.363l-8.006,0c-3.558,0 -4.54,0.982 -4.54,4.262c0,3.28 0.982,4.355 4.355,4.355c2.872,-0.037 5.689,-0.805 8.191,-2.224l0,-6.393Zm17.568,-12.546c0,-9.6 4.262,-15.307 14.324,-15.307c3.886,0.037 7.759,0.452 11.564,1.241l0,-18.049l10.859,-1.52l0,62.544l-8.635,0l-1.075,-3.707c-3.953,2.956 -8.758,4.548 -13.695,4.541c-8.71,0 -13.342,-5.171 -13.342,-15.029l0,-14.714Zm25.944,-4.893c-3.154,-0.704 -6.37,-1.089 -9.6,-1.149c-3.91,0 -5.429,1.854 -5.429,5.782l0,15.307c0,3.558 1.334,5.56 5.337,5.56c3.589,-0.13 7.018,-1.512 9.692,-3.91l0,-21.59Zm-228.827,-37.007l0,-5.986l-5.559,0l0,5.986l-2.632,0l0,-14.362l2.799,0l0,6.023l5.559,0l0,-6.023l2.798,0l0,14.362l-2.965,0Zm12.972,0l-2.223,0l-0.204,-0.704c-0.936,0.602 -2.02,0.936 -3.132,0.964c-1.964,0 -2.817,-1.298 -2.817,-3.077c0,-2.112 0.945,-2.909 3.15,-2.909l2.595,0l0,-1.149c0,-1.149 -0.334,-1.557 -2.057,-1.557c-1.001,0.01 -2.002,0.115 -2.984,0.315l-0.333,-1.983c1.21,-0.318 2.455,-0.481 3.706,-0.481c3.391,0 4.392,1.149 4.392,3.706l-0.093,6.875Zm-2.576,-3.91l-1.982,0c-0.89,0 -1.131,0.241 -1.131,1.019c0,0.779 0.241,1.038 1.093,1.038c0.714,-0.011 1.413,-0.195 2.039,-0.537l-0.019,-1.52Zm8.377,4.17c-1.261,-0.019 -2.506,-0.223 -3.707,-0.593l0.371,-1.983c1.045,0.285 2.122,0.435 3.206,0.444c1.204,0 1.371,-0.259 1.371,-1.037c0,-0.779 -0.129,-0.964 -1.853,-1.353c-2.631,-0.612 -2.946,-1.26 -2.946,-3.262c0,-2.001 0.945,-3.002 4.039,-3.002c1.094,0.004 2.18,0.13 3.243,0.371l-0.259,2.001c-0.982,-0.174 -1.97,-0.272 -2.965,-0.296c-1.168,0 -1.371,0.259 -1.371,0.889c0,0.63 0,0.89 1.519,1.26c3.021,0.76 3.299,1.149 3.299,3.28c0,2.132 -0.704,3.281 -3.947,3.281Zm12.379,-0.204l0,-7.209c0,-0.556 -0.241,-0.834 -0.871,-0.834c-0.983,0.093 -1.941,0.376 -2.817,0.834l0,7.153l-2.706,0l0,-14.566l2.706,0.408l0,4.577c1.232,-0.606 2.576,-0.945 3.947,-1c1.853,0 2.446,1.204 2.446,3.057l0,7.524l-2.705,0.056Zm4.966,-11.823l0,-2.595l2.706,0l0,2.539l-2.706,0.056Zm0,11.823l0,-10.415l2.706,0l0,10.359l-2.706,0.056Zm4.855,-10.267c0,-2.594 1.575,-4.114 5.245,-4.114c1.347,0 2.69,0.154 4.002,0.464l-0.315,2.316c-1.193,-0.222 -2.401,-0.345 -3.613,-0.371c-1.853,0 -2.539,0.63 -2.539,2.15l0,5.393c0,1.501 0.612,2.149 2.539,2.149c1.212,-0.026 2.42,-0.148 3.613,-0.37l0.315,2.316c-1.312,0.31 -2.655,0.463 -4.002,0.463c-3.707,0 -5.245,-1.501 -5.245,-4.114l0,-6.282Zm15.233,10.471c-3.706,0 -4.688,-1.965 -4.688,-4.077l0,-2.669c0,-2.131 1,-4.077 4.688,-4.077c3.688,0 4.689,1.965 4.689,4.077l0,2.613c0,2.131 -1.001,4.133 -4.689,4.133Zm0,-8.581c-1.445,0 -2.001,0.612 -2.001,1.854l0,2.779c0,1.168 0.556,1.854 2.001,1.854c1.446,0 2.002,-0.612 2.002,-1.854l0,-2.891c-0.019,-1.167 -0.556,-1.779 -2.002,-1.779l0,0.037Zm12.305,0.167c-0.988,0.426 -1.942,0.931 -2.854,1.501l0,6.672l-2.65,0l0,-10.378l2.28,0l0.185,1.149c0.884,-0.571 1.834,-1.025 2.835,-1.353l0.204,2.409Zm10.804,4.707c0.167,0.997 -0.148,2.016 -0.853,2.743c-0.698,0.732 -1.701,1.088 -2.705,0.964c-0.964,-0.01 -1.927,-0.112 -2.873,-0.297l0,4.188l-2.705,0.408l0,-14.825l2.094,0l0.259,0.871c0.994,-0.753 2.202,-1.168 3.447,-1.186c2.168,0 3.317,1.241 3.317,3.595l0.019,3.539Zm-6.449,1.168c0.786,0.17 1.586,0.263 2.39,0.278c0.983,0 1.353,-0.445 1.353,-1.39l0,-3.706c0,-0.853 -0.333,-1.316 -1.334,-1.316c-0.889,0.033 -1.736,0.365 -2.409,0.945l0,5.189Z" style="fill-rule:nonzero;"/></g></svg>